<?xml version="1.0" encoding="UTF-8" standalone="no"?>
<svg
   xmlns:dc="http://purl.org/dc/elements/1.1/"
   xmlns:cc="http://creativecommons.org/ns#"
   xmlns:rdf="http://www.w3.org/1999/02/22-rdf-syntax-ns#"
   xmlns:svg="http://www.w3.org/2000/svg"
   xmlns="http://www.w3.org/2000/svg"
   viewBox="0 0 380.35999 81.720001"
   height="81.720001"
   width="380.35999"
   xml:space="preserve"
   id="svg2"
   version="1.1"><metadata
     id="metadata8"><rdf:RDF><cc:Work
         rdf:about=""><dc:format>image/svg+xml</dc:format><dc:type
           rdf:resource="http://purl.org/dc/dcmitype/StillImage" /><dc:title></dc:title></cc:Work></rdf:RDF></metadata><defs
     id="defs6"><clipPath
       id="clipPath44"
       clipPathUnits="userSpaceOnUse"><path
         id="path42"
         d="m 707.441,483.281 v 0 c -3.269,46.289 -26.562,69.746 -71.156,71.66 -16.101,0.684 -136.055,3.965 -263.16,3.965 -123.66,0 -240.293,-2.148 -258.102,-3.965 -44.6324,-4.57 -66.6207,-26.679 -71.2964,-71.718 -1.6836,-16.797 -4.9571,-113.496 -4.9571,-168.067 0,-84.511 4.4493,-178.965 5.0078,-185.508 3.9024,-45.7222 26.5118,-68.5347 71.1607,-71.7964 13.636,-0.918 128.476,-5.4493 256.992,-5.4493 126.086,0 243.949,4.2969 264.285,5.4493 45.156,2.7148 67.117,24.8632 71.226,71.7964 0.825,9.903 4.164,102.188 4.164,185.508 0,53.907 -3.25,154.844 -4.164,168.125 z M 670.176,147.012 C 666.66,107.852 653.07,94.5703 614.277,92.3438 600.355,91.5234 488.594,87.6172 372.281,87.6172 c -111.746,0 -222.508,3.8086 -235.445,4.7266 -39.3907,2.7539 -52.4337,15.5272 -55.8985,54.6682 -0.5781,6.426 -4.4102,95.625 -4.4102,166.875 0,45.371 2.8477,137.011 4.4102,151.699 4.082,38.516 16.6523,50.801 55.9845,54.746 15.578,1.523 127.746,3.398 236.426,3.398 114.929,0 228.765,-2.91 240.984,-3.417 38.934,-1.641 53.012,-15.43 55.844,-54.629 0.758,-11.133 3.726,-105.02 3.726,-151.797 0,-74.141 -3.004,-158.438 -3.726,-166.875" /></clipPath><linearGradient
       id="linearGradient54"
       spreadMethod="pad"
       gradientTransform="matrix(589.814,589.814,588.976,-588.976,-212.954,305.616)"
       gradientUnits="userSpaceOnUse"
       y2="0"
       x2="1"
       y1="0"
       x1="0.011236"><stop
         id="stop46"
         offset="0"
         style="stop-opacity:1;stop-color:#fcd562" /><stop
         id="stop48"
         offset="0.353932"
         style="stop-opacity:1;stop-color:#fee9ad" /><stop
         id="stop50"
         offset="0.39049039"
         style="stop-opacity:1;stop-color:#fee9ad" /><stop
         id="stop52"
         offset="1"
         style="stop-opacity:1;stop-color:#fcd562" /></linearGradient><clipPath
       id="clipPath64"
       clipPathUnits="userSpaceOnUse"><path
         id="path62"
         d="M 328.262,476.992 H 173.539 v -86.719 c 0,0 52.895,0 58.961,0 0,-6.425 0,-167.968 0,-174.394 -6.152,0 -68.289,0 -68.289,0 V 126.855 H 486.727 L 633.965,476.758 H 365.777 v -86.192 c 0,0 110.18,0 119.618,0 -3.59,-8.496 -79.891,-188.613 -91.075,-215.019 0,15.859 0,40.332 0,40.332 0,0 -56.547,0 -62.644,0 0,6.621 0,261.113 0,261.113 h -3.414" /></clipPath><linearGradient
       id="linearGradient74"
       spreadMethod="pad"
       gradientTransform="matrix(448.391,448.391,370.239,-370.239,-44.8489,297.178)"
       gradientUnits="userSpaceOnUse"
       y2="0"
       x2="1"
       y1="0"
       x1="0.011236"><stop
         id="stop66"
         offset="0"
         style="stop-opacity:1;stop-color:#fcd562" /><stop
         id="stop68"
         offset="0.353932"
         style="stop-opacity:1;stop-color:#fee9ad" /><stop
         id="stop70"
         offset="0.39049039"
         style="stop-opacity:1;stop-color:#fee9ad" /><stop
         id="stop72"
         offset="1"
         style="stop-opacity:1;stop-color:#fcd562" /></linearGradient></defs><g
     transform="matrix(1.3333333,0,0,-1.3333333,0,81.72)"
     id="g10"><path
       d="m 99.6449,39.0762 h -1.2508 c -0.1109,0.4609 -0.3121,1.0078 -0.6003,1.6406 -0.2895,0.6328 -0.6122,1.2324 -0.9696,1.7969 -0.3711,0.5879 -0.7754,1.1015 -1.2113,1.5429 -0.4371,0.4414 -0.859,0.6954 -1.2664,0.7598 -0.3813,0.0508 -0.8613,0.0879 -1.4414,0.1133 -0.5793,0.0254 -1.1137,0.0391 -1.6074,0.0391 H 90.227 V 23.0957 c 0,-0.4238 0.0847,-0.8125 0.2554,-1.166 0.1719,-0.3535 0.4711,-0.627 0.8992,-0.8184 0.2192,-0.0898 0.6817,-0.2129 1.3844,-0.3672 0.7028,-0.1543 1.2485,-0.2382 1.6406,-0.25 v -1.3593 h -12.348 v 1.3593 c 0.3449,0.0254 0.8707,0.0782 1.5785,0.1543 0.707,0.0762 1.1969,0.1739 1.468,0.2891 0.4066,0.166 0.7051,0.4082 0.8953,0.7227 0.191,0.3144 0.2863,0.7343 0.2863,1.2617 v 22.0469 h -1.0652 c -0.3801,0 -0.8524,-0.0098 -1.4149,-0.0293 -0.5628,-0.0176 -1.1023,-0.0606 -1.6168,-0.1231 -0.4043,-0.0527 -0.8234,-0.3047 -1.2578,-0.7598 -0.4355,-0.4531 -0.8367,-0.9687 -1.2035,-1.5429 -0.3683,-0.5762 -0.6918,-1.1895 -0.9742,-1.834 -0.282,-0.6465 -0.4773,-1.1817 -0.5871,-1.6035 h -1.2977 v 7.4043 h 22.7754 v -7.4043"
       style="fill:#3d247c;fill-opacity:1;fill-rule:nonzero;stroke:none;stroke-width:0.1"
       id="path14" /><path
       d="m 107.473,22.3633 c -0.9,-1.5488 -2.117,-2.3223 -3.657,-2.3223 -0.935,0 -1.721,0.2324 -2.353,0.7012 -0.636,0.4668 -1.162,1.1094 -1.5798,1.9277 -0.4187,0.8184 -0.7234,1.75 -0.9141,2.793 -0.191,1.043 -0.2871,2.1797 -0.2871,3.4082 0,0.9336 0.0801,1.8984 0.2414,2.8965 0.159,1 0.4364,1.8906 0.8309,2.6699 0.4177,0.8438 0.9617,1.5098 1.6327,1.9961 0.671,0.4863 1.482,0.7285 2.429,0.7285 0.925,0 1.704,-0.2383 2.346,-0.7187 0.639,-0.4805 1.157,-1.1153 1.551,-1.9102 0.369,-0.7422 0.646,-1.6484 0.83,-2.7168 0.186,-1.0684 0.278,-2.082 0.278,-3.041 0,-2.7285 -0.45,-4.8633 -1.348,-6.4121 z m 2.666,13.5801 c -1.65,1.7871 -3.746,2.6796 -6.286,2.6796 -2.675,0 -4.8393,-0.9394 -6.4893,-2.8222 -1.6512,-1.8809 -2.4766,-4.3008 -2.4766,-7.2578 0,-1.5352 0.2356,-2.92 0.709,-4.1563 0.4719,-1.2344 1.1066,-2.2812 1.9059,-3.1387 0.8089,-0.8691 1.7359,-1.5312 2.78,-1.9863 1.043,-0.4531 2.14,-0.6816 3.295,-0.6816 1.386,0 2.638,0.25 3.755,0.748 1.117,0.5 2.099,1.2617 2.947,2.2852 0.747,0.8965 1.324,1.9883 1.728,3.2734 0.407,1.2852 0.609,2.5938 0.609,3.9258 0,2.9688 -0.825,5.3477 -2.477,7.1309"
       style="fill:#3d247c;fill-opacity:1;fill-rule:nonzero;stroke:none;stroke-width:0.1"
       id="path16" /><path
       d="m 139.192,36.8984 c -0.516,-0.0527 -1.072,-0.2773 -1.666,-0.6738 -0.594,-0.3984 -1.028,-0.998 -1.297,-1.793 -0.613,-1.8906 -1.193,-3.6816 -1.738,-5.373 -0.547,-1.6895 -1.155,-3.5898 -1.83,-5.6973 -0.223,-0.6679 -0.446,-1.3886 -0.672,-2.1601 -0.227,-0.7715 -0.434,-1.5117 -0.618,-2.2168 h -1.552 l -4.906,14.0039 -4.908,-14.0039 h -1.512 c -0.919,2.8535 -1.819,5.6836 -2.694,8.4941 -0.878,2.8086 -1.653,5.2559 -2.328,7.3379 -0.197,0.6035 -0.57,1.0801 -1.122,1.4258 -0.554,0.3476 -1.085,0.5547 -1.601,0.6191 v 1.2598 h 8.092 v -1.3359 c -0.406,-0.0137 -0.844,-0.086 -1.314,-0.2129 -0.475,-0.1289 -0.709,-0.3418 -0.709,-0.6368 0,-0.0527 0.021,-0.1621 0.064,-0.3281 0.043,-0.166 0.095,-0.3476 0.157,-0.541 0.392,-1.3516 0.839,-2.8594 1.335,-4.5254 0.498,-1.666 1.141,-3.832 1.927,-6.4961 l 4.635,13.6719 h 1.78 l 4.729,-13.4375 c 0.527,1.7148 1.051,3.3809 1.572,4.9883 0.522,1.6074 0.979,3.1191 1.373,4.5293 0.084,0.332 0.168,0.6367 0.246,0.914 0.078,0.2754 0.119,0.5489 0.119,0.8184 0,0.2324 -0.097,0.4375 -0.293,0.6172 -0.197,0.1797 -0.435,0.3262 -0.716,0.4433 -0.247,0.1036 -0.512,0.1797 -0.801,0.2325 -0.287,0.0507 -0.498,0.0761 -0.635,0.0761 v 1.2227 h 6.883 v -1.2227"
       style="fill:#3d247c;fill-opacity:1;fill-rule:nonzero;stroke:none;stroke-width:0.1"
       id="path18" /><path
       d="m 158.353,19.1348 h -8.937 v 1.2578 c 0.282,0.0254 0.592,0.0508 0.932,0.0781 0.338,0.0254 0.619,0.0762 0.84,0.1543 0.344,0.1133 0.6,0.3164 0.766,0.6055 0.166,0.2871 0.25,0.6621 0.25,1.123 v 9.7442 c 0,1.3457 -0.303,2.3847 -0.905,3.1132 -0.603,0.7305 -1.338,1.0957 -2.203,1.0957 -0.642,0 -1.236,-0.1054 -1.773,-0.3164 -0.534,-0.2129 -1.008,-0.4707 -1.424,-0.7793 -0.403,-0.2949 -0.723,-0.6113 -0.959,-0.9511 -0.238,-0.3399 -0.412,-0.6114 -0.522,-0.8164 V 22.5469 c 0,-0.4356 0.086,-0.7969 0.258,-1.0781 0.17,-0.2813 0.428,-0.4981 0.772,-0.6524 0.254,-0.1289 0.533,-0.2246 0.832,-0.2871 0.299,-0.0664 0.607,-0.1113 0.925,-0.1367 v -1.2578 h -8.935 v 1.2578 c 0.285,0.0254 0.578,0.0508 0.881,0.0781 0.303,0.0254 0.566,0.0781 0.789,0.1543 0.346,0.1152 0.603,0.3184 0.769,0.6094 0.166,0.289 0.252,0.666 0.252,1.1289 V 34.123 c 0,0.4375 -0.091,0.8379 -0.267,1.2051 -0.182,0.3672 -0.432,0.668 -0.75,0.8985 -0.235,0.1562 -0.512,0.2675 -0.832,0.3379 -0.321,0.0703 -0.664,0.1191 -1.035,0.1445 v 1.2598 l 6.082,0.4023 0.259,-0.2734 v -2.7071 h 0.092 c 0.293,0.3067 0.658,0.6758 1.096,1.1055 0.439,0.4316 0.853,0.7812 1.244,1.0488 0.453,0.3086 0.988,0.5645 1.609,0.7715 0.621,0.2031 1.323,0.3066 2.104,0.3066 1.728,0 3.014,-0.5683 3.849,-1.7031 0.834,-1.1367 1.25,-2.6465 1.25,-4.5332 v -9.875 c 0,-0.4512 0.076,-0.8125 0.228,-1.0879 0.149,-0.2773 0.406,-0.4902 0.77,-0.6465 0.301,-0.1269 0.562,-0.2168 0.781,-0.2675 0.219,-0.0528 0.523,-0.0918 0.912,-0.1172 v -1.2578"
       style="fill:#3d247c;fill-opacity:1;fill-rule:nonzero;stroke:none;stroke-width:0.1"
       id="path20" /><path
       d="m 192.449,19.1348 h -11.627 v 1.3593 c 0.42,0.0118 0.957,0.0567 1.617,0.1348 0.658,0.0781 1.111,0.1856 1.357,0.3281 0.381,0.2442 0.663,0.5235 0.842,0.8379 0.178,0.3145 0.268,0.711 0.268,1.1856 V 42.875 h -0.276 l -8.888,-23.2871 h -0.918 l -8.465,23.7695 h -0.24 V 27.0293 c 0,-1.5801 0.095,-2.7832 0.285,-3.6055 0.189,-0.8222 0.478,-1.414 0.869,-1.7734 0.27,-0.2695 0.826,-0.5254 1.668,-0.7695 0.842,-0.2442 1.391,-0.375 1.648,-0.3868 v -1.3593 h -10.523 v 1.3593 c 0.553,0.0528 1.135,0.1465 1.742,0.2891 0.608,0.1406 1.078,0.3535 1.41,0.6367 0.43,0.3594 0.725,0.9121 0.883,1.6582 0.162,0.7442 0.24,1.9922 0.24,3.7403 v 14.0019 c 0,0.8086 -0.089,1.4707 -0.275,1.9863 -0.182,0.5137 -0.443,0.9297 -0.785,1.2539 -0.379,0.3458 -0.842,0.6036 -1.393,0.7696 -0.549,0.1679 -1.093,0.2637 -1.629,0.291 v 1.3594 h 8.875 l 7.448,-20.4785 6.382,17.1328 c 0.237,0.6269 0.436,1.2851 0.604,1.9707 0.166,0.6855 0.254,1.1425 0.266,1.375 h 8.568 v -1.3594 c -0.346,-0.0156 -0.783,-0.0723 -1.318,-0.1738 -0.536,-0.1055 -0.924,-0.1993 -1.17,-0.2891 -0.418,-0.1543 -0.7,-0.4121 -0.848,-0.7734 -0.146,-0.3594 -0.221,-0.752 -0.221,-1.1739 V 22.9824 c 0,-0.4511 0.075,-0.8301 0.221,-1.1386 0.15,-0.3086 0.434,-0.5782 0.852,-0.8106 0.222,-0.1289 0.617,-0.2461 1.183,-0.3555 0.565,-0.1093 1.014,-0.1718 1.348,-0.1836 v -1.3593"
       style="fill:#fcd562;fill-opacity:1;fill-rule:nonzero;stroke:none;stroke-width:0.1"
       id="path22" /><path
       d="m 195.089,30.8184 c 0.075,1.9941 0.538,3.5488 1.391,4.6679 0.856,1.1172 1.928,1.6758 3.219,1.6758 0.775,0 1.406,-0.1855 1.9,-0.5547 0.49,-0.3711 0.879,-0.8496 1.162,-1.4375 0.256,-0.5508 0.444,-1.2344 0.561,-2.0527 0.117,-0.8184 0.176,-1.5859 0.176,-2.2988 z m 11.196,-6.4473 c -0.739,-1.3867 -1.504,-2.3457 -2.299,-2.877 -0.791,-0.5332 -1.734,-0.7988 -2.83,-0.7988 -1.07,0 -1.99,0.2168 -2.766,0.6485 -0.773,0.4316 -1.402,1.0214 -1.881,1.7714 -0.492,0.7715 -0.851,1.668 -1.078,2.6856 -0.228,1.0195 -0.342,2.1543 -0.342,3.4062 h 12.059 v 1.2676 c 0,1.1406 -0.139,2.1973 -0.414,3.1699 -0.277,0.9746 -0.697,1.8203 -1.264,2.5371 -0.59,0.7559 -1.357,1.3516 -2.304,1.7872 -0.948,0.4355 -2.082,0.6542 -3.412,0.6542 -1.291,0 -2.456,-0.2792 -3.495,-0.8378 -1.037,-0.5586 -1.908,-1.295 -2.607,-2.2071 -0.727,-0.9511 -1.277,-2.0215 -1.65,-3.209 -0.375,-1.1894 -0.565,-2.3984 -0.565,-3.6328 0,-1.375 0.176,-2.6777 0.526,-3.9121 0.349,-1.2344 0.88,-2.3125 1.595,-3.2383 0.713,-0.9238 1.617,-1.6562 2.719,-2.1972 1.098,-0.5391 2.379,-0.8086 3.84,-0.8086 1.66,0 3.127,0.4492 4.404,1.3476 1.279,0.8965 2.299,2.1036 3.061,3.6172 l -1.297,0.8262"
       style="fill:#fcd562;fill-opacity:1;fill-rule:nonzero;stroke:none;stroke-width:0.1"
       id="path24" /><path
       d="m 212.125,30.8184 c 0.072,1.9941 0.535,3.5488 1.39,4.6679 0.856,1.1172 1.926,1.6758 3.217,1.6758 0.775,0 1.408,-0.1855 1.9,-0.5547 0.493,-0.3711 0.879,-0.8496 1.161,-1.4375 0.257,-0.5508 0.447,-1.2344 0.564,-2.0527 0.115,-0.8184 0.174,-1.5859 0.174,-2.2988 z m 11.193,-6.4473 c -0.736,-1.3867 -1.504,-2.3457 -2.295,-2.877 -0.795,-0.5332 -1.738,-0.7988 -2.834,-0.7988 -1.068,0 -1.99,0.2168 -2.764,0.6485 -0.775,0.4316 -1.402,1.0214 -1.88,1.7714 -0.493,0.7715 -0.854,1.668 -1.081,2.6856 -0.228,1.0195 -0.339,2.1543 -0.339,3.4062 h 12.058 v 1.2676 c 0,1.1406 -0.138,2.1973 -0.416,3.1699 -0.275,0.9746 -0.697,1.8203 -1.262,2.5371 -0.591,0.7559 -1.359,1.3516 -2.306,1.7872 -0.945,0.4355 -2.082,0.6542 -3.41,0.6542 -1.291,0 -2.455,-0.2792 -3.494,-0.8378 -1.04,-0.5586 -1.909,-1.295 -2.61,-2.2071 -0.726,-0.9511 -1.277,-2.0215 -1.652,-3.209 -0.373,-1.1894 -0.561,-2.3984 -0.561,-3.6328 0,-1.375 0.176,-2.6777 0.524,-3.9121 0.351,-1.2344 0.883,-2.3125 1.595,-3.2383 0.713,-0.9238 1.62,-1.6562 2.719,-2.1972 1.098,-0.5391 2.379,-0.8086 3.842,-0.8086 1.658,0 3.127,0.4492 4.404,1.3476 1.278,0.8965 2.297,2.1036 3.059,3.6172 l -1.297,0.8262"
       style="fill:#fcd562;fill-opacity:1;fill-rule:nonzero;stroke:none;stroke-width:0.1"
       id="path26" /><path
       d="m 236.045,19.9551 c -0.799,-0.3438 -1.555,-0.6348 -2.268,-0.8692 -0.713,-0.2363 -1.586,-0.3554 -2.617,-0.3554 -1.524,0 -2.598,0.4043 -3.217,1.205 -0.621,0.8028 -0.932,1.9356 -0.932,3.4004 V 36.207 h -3.267 v 1.8633 h 3.342 v 5.9434 h 3.347 v -5.9434 h 3.233 V 36.207 H 230.47 V 25.5801 c 0,-0.7988 0.028,-1.4629 0.084,-1.9961 0.055,-0.5332 0.186,-1 0.397,-1.3985 0.195,-0.371 0.49,-0.6562 0.885,-0.8476 0.394,-0.1934 0.923,-0.2891 1.587,-0.2891 0.309,0 0.76,0.0274 1.356,0.084 0.598,0.0567 1.019,0.1289 1.266,0.2168 v -1.3945"
       style="fill:#fcd562;fill-opacity:1;fill-rule:nonzero;stroke:none;stroke-width:0.1"
       id="path28" /><path
       d="m 245.275,19.1348 h -8.842 v 1.2578 c 0.287,0.0254 0.58,0.0508 0.883,0.0781 0.305,0.0254 0.568,0.0781 0.791,0.1543 0.346,0.1152 0.602,0.3184 0.77,0.6094 0.166,0.289 0.25,0.666 0.25,1.1289 V 34.123 c 0,0.4122 -0.09,0.7872 -0.266,1.129 -0.178,0.3398 -0.424,0.6269 -0.74,0.8593 -0.233,0.1543 -0.569,0.2871 -1.008,0.3946 -0.44,0.1093 -0.842,0.1777 -1.207,0.2031 v 1.2598 l 6.42,0.4023 0.26,-0.2695 V 22.5918 c 0,-0.4492 0.082,-0.8223 0.248,-1.1172 0.166,-0.2969 0.425,-0.5156 0.783,-0.6562 0.269,-0.1153 0.533,-0.209 0.791,-0.2793 0.26,-0.0723 0.549,-0.1211 0.867,-0.1465 z m -2.305,24.459 c 0,-0.7305 -0.23,-1.3692 -0.691,-1.9122 -0.457,-0.5449 -1.027,-0.8164 -1.701,-0.8164 -0.625,0 -1.166,0.2578 -1.627,0.7774 -0.461,0.5195 -0.69,1.1113 -0.69,1.7773 0,0.7051 0.229,1.3184 0.69,1.8438 0.461,0.5273 1.002,0.789 1.627,0.789 0.699,0 1.273,-0.2461 1.72,-0.7402 0.448,-0.4922 0.672,-1.0664 0.672,-1.7187"
       style="fill:#fcd562;fill-opacity:1;fill-rule:nonzero;stroke:none;stroke-width:0.1"
       id="path30" /><path
       d="m 266.043,19.1348 h -8.938 v 1.2578 c 0.283,0.0254 0.594,0.0508 0.934,0.0781 0.336,0.0254 0.617,0.0762 0.84,0.1543 0.343,0.1133 0.599,0.3164 0.765,0.6055 0.166,0.2871 0.248,0.6621 0.248,1.123 v 9.7442 c 0,1.3457 -0.301,2.3847 -0.904,3.1132 -0.602,0.7305 -1.336,1.0957 -2.201,1.0957 -0.645,0 -1.237,-0.1054 -1.774,-0.3164 -0.533,-0.2129 -1.009,-0.4707 -1.424,-0.7793 -0.404,-0.2949 -0.722,-0.6113 -0.959,-0.9511 -0.236,-0.3399 -0.412,-0.6114 -0.519,-0.8164 V 22.5469 c 0,-0.4356 0.084,-0.7969 0.256,-1.0781 0.17,-0.2813 0.428,-0.4981 0.769,-0.6524 0.256,-0.1289 0.534,-0.2246 0.834,-0.2871 0.299,-0.0664 0.608,-0.1113 0.928,-0.1367 v -1.2578 h -8.937 v 1.2578 c 0.283,0.0254 0.578,0.0508 0.878,0.0781 0.305,0.0254 0.569,0.0781 0.791,0.1543 0.346,0.1152 0.602,0.3184 0.768,0.6094 0.168,0.289 0.252,0.666 0.252,1.1289 V 34.123 c 0,0.4375 -0.088,0.8379 -0.268,1.2051 -0.177,0.3672 -0.427,0.668 -0.748,0.8985 -0.234,0.1562 -0.511,0.2675 -0.832,0.3379 -0.32,0.0703 -0.664,0.1191 -1.035,0.1445 v 1.2598 l 6.082,0.4023 0.262,-0.2734 v -2.7071 h 0.09 c 0.293,0.3067 0.658,0.6758 1.095,1.1055 0.438,0.4316 0.856,0.7812 1.245,1.0488 0.451,0.3086 0.986,0.5645 1.609,0.7715 0.621,0.2031 1.322,0.3066 2.102,0.3066 1.73,0 3.013,-0.5683 3.847,-1.7031 0.836,-1.1367 1.254,-2.6465 1.254,-4.5332 v -9.875 c 0,-0.4512 0.074,-0.8125 0.227,-1.0879 0.148,-0.2773 0.408,-0.4902 0.769,-0.6465 0.301,-0.1269 0.561,-0.2168 0.781,-0.2675 0.219,-0.0528 0.524,-0.0918 0.913,-0.1172 v -1.2578"
       style="fill:#fcd562;fill-opacity:1;fill-rule:nonzero;stroke:none;stroke-width:0.1"
       id="path32" /><path
       d="m 275.035,28.9355 c -0.572,-0.8945 -1.391,-1.3417 -2.451,-1.3417 -0.952,0 -1.727,0.4511 -2.325,1.3515 -0.599,0.9004 -0.898,2.0645 -0.898,3.4942 0,0.6289 0.053,1.2441 0.158,1.8418 0.104,0.5976 0.279,1.1093 0.527,1.5351 0.26,0.4609 0.596,0.8184 1.008,1.0703 0.414,0.252 0.912,0.377 1.492,0.377 1.061,0 1.885,-0.4473 2.471,-1.3418 0.584,-0.8926 0.879,-2.0938 0.879,-3.5996 0,-1.3633 -0.287,-2.4922 -0.861,-3.3868 z m 4.261,-6.7792 c -0.57,0.2558 -1.136,0.3964 -1.701,0.4238 -0.392,0.0117 -1.056,0.0508 -1.994,0.1152 -0.935,0.0645 -1.674,0.1035 -2.213,0.1152 -0.504,0.0137 -0.99,0.0313 -1.463,0.0567 -0.47,0.0254 -0.884,0.0898 -1.24,0.1914 -0.367,0.0898 -0.681,0.2578 -0.937,0.5059 -0.258,0.248 -0.387,0.6074 -0.387,1.0781 0,0.459 0.152,0.8222 0.451,1.0879 0.301,0.2675 0.59,0.4531 0.865,0.5547 h 2.225 c 1.717,0 3.223,0.5761 4.516,1.7304 1.291,1.1563 1.937,2.5684 1.937,4.2364 0,0.6406 -0.109,1.2949 -0.33,1.9609 -0.221,0.666 -0.559,1.2754 -1.012,1.8262 v 0.1152 h 4.274 v 1.8652 h -6.332 c -0.565,0.1758 -1.119,0.3203 -1.664,0.4336 -0.545,0.1133 -1.094,0.1699 -1.647,0.1699 -1.998,0 -3.637,-0.5781 -4.916,-1.7324 -1.281,-1.1562 -1.922,-2.6308 -1.922,-4.4277 0,-1.1934 0.324,-2.2422 0.975,-3.1465 0.65,-0.9062 1.562,-1.6445 2.74,-2.2226 v -0.2872 c -0.924,-0.4082 -1.615,-0.8964 -2.07,-1.4628 -0.455,-0.5704 -0.684,-1.1915 -0.684,-1.8672 0,-0.5371 0.098,-0.9844 0.293,-1.3477 0.197,-0.3652 0.455,-0.6797 0.774,-0.9473 0.279,-0.2304 0.617,-0.4316 1.007,-0.6035 0.393,-0.1718 0.772,-0.3164 1.139,-0.4316 v -0.2656 c -1.521,-0.0664 -2.775,-0.4786 -3.756,-1.2383 -0.982,-0.7578 -1.474,-1.793 -1.474,-3.1074 0,-1.6211 0.679,-2.8536 2.043,-3.6973 1.359,-0.8418 3.414,-1.2637 6.16,-1.2637 1.681,0 3.093,0.166 4.234,0.5 1.141,0.334 2.123,0.8047 2.943,1.4063 0.774,0.5918 1.35,1.289 1.729,2.0918 0.381,0.8027 0.572,1.6621 0.572,2.5722 0,0.9121 -0.142,1.6778 -0.424,2.295 -0.283,0.6152 -0.668,1.1679 -1.158,1.6562 -0.467,0.4492 -0.984,0.8027 -1.553,1.0606 z m -1.449,-9.0293 c -1.037,-0.7286 -2.459,-1.0938 -4.261,-1.0938 -1.045,0 -1.928,0.1074 -2.653,0.3203 -0.724,0.2129 -1.303,0.4863 -1.73,0.8203 -0.455,0.3496 -0.774,0.7285 -0.959,1.1407 -0.184,0.4121 -0.276,0.8457 -0.276,1.2949 0,1.0058 0.282,1.8281 0.842,2.4648 0.565,0.6387 1.51,1.0918 2.842,1.3633 1.408,0 2.644,-0.0332 3.709,-0.0977 1.068,-0.0644 1.769,-0.123 2.115,-0.1738 0.647,-0.166 1.131,-0.4824 1.449,-0.9472 0.321,-0.4649 0.479,-1.0567 0.479,-1.7774 0,-1.4824 -0.52,-2.5879 -1.557,-3.3144"
       style="fill:#fcd562;fill-opacity:1;fill-rule:nonzero;stroke:none;stroke-width:0.1"
       id="path34" /><path
       d="M 11.4586,5.28125 C 6.75977,5.61523 4.2793,8.11328 3.86797,12.918 3.81211,13.5586 3.36719,22.9453 3.36719,31.5156 c 0,5.5274 0.33047,15.211 0.50078,16.8555 0.49062,4.7891 2.83008,7.1445 7.58323,7.6309 1.8035,0.1835 13.4929,0.4023 25.8613,0.4023 13.1992,0 25.198,-0.3516 26.3387,-0.3984 4.7058,-0.2051 7.2621,-2.7754 7.5992,-7.6407 v -0.0019 c 0.0934,-1.2813 0.4234,-11.3262 0.4234,-16.8477 0,-8.4648 -0.3355,-17.5547 -0.4234,-18.5976 C 70.8285,8.05273 68.3445,5.55469 63.6512,5.27539 61.8004,5.16406 50.0176,4.72852 37.193,4.72852 c -12.6266,0 -24.2106,0.43945 -25.7344,0.55273"
       style="fill:#ffffff;fill-opacity:1;fill-rule:nonzero;stroke:none;stroke-width:0.1"
       id="path36" /><g
       transform="scale(0.1)"
       id="g38"><g
         id="g40"
         clip-path="url(#clipPath44)"><path
           d="m 707.441,483.281 v 0 c -3.269,46.289 -26.562,69.746 -71.156,71.66 -16.101,0.684 -136.055,3.965 -263.16,3.965 -123.66,0 -240.293,-2.148 -258.102,-3.965 -44.6324,-4.57 -66.6207,-26.679 -71.2964,-71.718 -1.6836,-16.797 -4.9571,-113.496 -4.9571,-168.067 0,-84.511 4.4493,-178.965 5.0078,-185.508 3.9024,-45.7222 26.5118,-68.5347 71.1607,-71.7964 13.636,-0.918 128.476,-5.4493 256.992,-5.4493 126.086,0 243.949,4.2969 264.285,5.4493 45.156,2.7148 67.117,24.8632 71.226,71.7964 0.825,9.903 4.164,102.188 4.164,185.508 0,53.907 -3.25,154.844 -4.164,168.125 z M 670.176,147.012 C 666.66,107.852 653.07,94.5703 614.277,92.3438 600.355,91.5234 488.594,87.6172 372.281,87.6172 c -111.746,0 -222.508,3.8086 -235.445,4.7266 -39.3907,2.7539 -52.4337,15.5272 -55.8985,54.6682 -0.5781,6.426 -4.4102,95.625 -4.4102,166.875 0,45.371 2.8477,137.011 4.4102,151.699 4.082,38.516 16.6523,50.801 55.9845,54.746 15.578,1.523 127.746,3.398 236.426,3.398 114.929,0 228.765,-2.91 240.984,-3.417 38.934,-1.641 53.012,-15.43 55.844,-54.629 0.758,-11.133 3.726,-105.02 3.726,-151.797 0,-74.141 -3.004,-158.438 -3.726,-166.875"
           style="fill:url(#linearGradient54);fill-opacity:1;fill-rule:nonzero;stroke:none"
           id="path56" /></g></g><g
       transform="scale(0.1)"
       id="g58"><g
         id="g60"
         clip-path="url(#clipPath64)"><path
           d="M 328.262,476.992 H 173.539 v -86.719 c 0,0 52.895,0 58.961,0 0,-6.425 0,-167.968 0,-174.394 -6.152,0 -68.289,0 -68.289,0 V 126.855 H 486.727 L 633.965,476.758 H 365.777 v -86.192 c 0,0 110.18,0 119.618,0 -3.59,-8.496 -79.891,-188.613 -91.075,-215.019 0,15.859 0,40.332 0,40.332 0,0 -56.547,0 -62.644,0 0,6.621 0,261.113 0,261.113 h -3.414"
           style="fill:url(#linearGradient74);fill-opacity:1;fill-rule:nonzero;stroke:none"
           id="path76" /></g></g><path
       d="m 71.5914,48.3867 c -0.3516,5.0703 -3.0184,7.7461 -7.9277,7.959 -1.6403,0.0684 -13.7477,0.4004 -26.3512,0.4004 -12.3648,0 -24.075,-0.2168 -25.8965,-0.4063 v 0 C 6.46953,55.832 4.03867,53.3867 3.53086,48.4063 3.35859,46.7461 3.02617,37.0371 3.02617,31.5156 3.02617,23.0215 3.4707,13.5449 3.52891,12.8906 3.9543,7.89063 6.53984,5.28711 11.432,4.93945 12.993,4.82617 24.6648,4.38867 37.193,4.38867 c 12.809,0 24.6215,0.4375 26.4793,0.54688 4.8922,0.29101 7.4797,2.89258 7.9191,7.95505 0.0863,1.0274 0.4238,10.0996 0.4238,18.625 0,5.543 -0.3339,15.5977 -0.4238,16.8711 M 37.193,5.58203 c -12.9625,0 -24.518,0.4668 -25.675,0.54492 C 7.19375,6.44141 5.09648,8.55664 4.71719,12.9961 4.6625,13.6348 4.21758,23.0078 4.21758,31.5156 c 0,5.4864 0.3293,15.1231 0.49414,16.7715 0.44648,4.3106 2.55117,6.4297 6.82578,6.8672 1.7824,0.1836 13.4297,0.3965 25.775,0.3965 12.6246,0 24.6688,-0.3281 26.3016,-0.4004 4.3175,-0.1816 6.473,-2.3613 6.7906,-6.8457 0.0879,-1.332 0.4152,-11.4141 0.4152,-16.7891 0,-8.3926 -0.3359,-17.5566 -0.4152,-18.5195 C 70.0113,8.50195 67.9176,6.38672 63.6039,6.12695 61.7266,6.01953 49.891,5.58203 37.193,5.58203"
       style="fill:#3d247c;fill-opacity:1;fill-rule:nonzero;stroke:none;stroke-width:0.1"
       id="path78" /><path
       d="m 67.357,46.5938 c -0.28,3.8925 -1.6422,5.5976 -5.9097,5.7773 -1.2922,0.0527 -12.6582,0.3437 -24.1125,0.3437 -11.3059,0 -22.1586,-0.1933 -23.6758,-0.3437 C 9.41211,51.9473 8.16797,50.4727 7.75469,46.5938 7.6,45.1387 7.31133,36.0352 7.31133,31.3887 7.31133,24.1875 7.69805,15.3164 7.75469,14.6719 8.0957,10.7891 9.40195,9.19336 13.659,8.89063 14.8863,8.80664 25.9586,8.41992 37.2281,8.41992 c 11.4907,0 22.734,0.38672 24.2192,0.47071 4.2625,0.24609 5.5617,1.89847 5.9097,5.78127 0.0805,0.9316 0.3727,9.5156 0.3727,16.7168 0,4.6465 -0.2922,14.039 -0.3727,15.2051 z M 48.448,13.0234 H 16.7637 v 8.2227 h 6.825 v 18.123 h -5.8953 v 7.9903 H 32.8262 V 21.2461 h 6.2652 V 15.875 l 9.9613,23.5234 H 36.9184 V 47.334 H 62.8832 L 48.448,13.0234"
       style="fill:#3d247c;fill-opacity:1;fill-rule:nonzero;stroke:none;stroke-width:0.1"
       id="path80" /><path
       d="m 68.2359,45.7168 c -0.1636,2.2832 -0.7242,3.7949 -2.0007,4.707 0.6613,-0.916 1.0023,-2.1621 1.1218,-3.83 0.0805,-1.1661 0.3727,-10.5586 0.3727,-15.2051 0,-7.2012 -0.2922,-15.7852 -0.3727,-16.7168 C 67.009,10.7891 65.7098,9.13672 61.4473,8.89063 59.9621,8.80664 48.7188,8.41992 37.2281,8.41992 25.9586,8.41992 14.8863,8.80664 13.659,8.89063 11.898,9.01758 10.6621,9.38086 9.77109,10.0176 10.6465,8.80664 12.0965,8.1875 14.5383,8.01563 15.7652,7.93164 26.834,7.54297 38.107,7.54297 c 11.4887,0 22.734,0.38867 24.2192,0.47266 4.2625,0.24414 5.5593,1.89648 5.9097,5.77927 0.0789,0.9336 0.3727,9.5156 0.3727,16.7168 0,4.6446 -0.2938,14.041 -0.3727,15.2051"
       style="fill:#ffffff;fill-opacity:1;fill-rule:nonzero;stroke:none;stroke-width:0.1"
       id="path82" /><path
       d="M 5.40625,12.4746 C 5.35,13.1172 4.90859,22.4922 4.90859,31.002 c 0,5.4804 0.32539,15.121 0.49414,16.7636 0.44102,4.3184 2.54688,6.4336 6.82187,6.8711 1.7844,0.1856 13.4281,0.3946 25.777,0.3946 12.6211,0 24.6687,-0.3262 26.3,-0.3946 1.6031,-0.0703 2.9129,-0.416 3.9359,-1.0547 -1.1004,0.9668 -2.6316,1.4844 -4.6234,1.5684 -1.6328,0.0723 -13.677,0.4004 -26.3016,0.4004 -12.3453,0 -23.9926,-0.2129 -25.775,-0.3965 C 7.26289,54.7168 5.1582,52.5977 4.71172,48.2871 4.54688,46.6387 4.21758,37.002 4.21758,31.5156 4.21758,23.0078 4.6625,13.6348 4.71719,12.9961 4.9582,10.1992 5.87734,8.32813 7.60703,7.24414 6.32031,8.37109 5.60859,10.082 5.40625,12.4746"
       style="fill:#ffffff;fill-opacity:1;fill-rule:nonzero;stroke:none;stroke-width:0.1"
       id="path84" /><path
       d="m 37.7711,46.4805 h 24.7535 l 0.3586,0.8535 H 36.9184 v -7.9356 h 0.8527 v 7.0821"
       style="fill:#ffffff;fill-opacity:1;fill-rule:nonzero;stroke:none;stroke-width:0.1"
       id="path86" /><path
       d="M 39.9438,15.0215 49.9086,38.543 H 48.6922 L 39.9438,17.8906 v -2.8691"
       style="fill:#ffffff;fill-opacity:1;fill-rule:nonzero;stroke:none;stroke-width:0.1"
       id="path88" /><path
       d="m 18.5477,46.5059 h 14.2785 v 0.8535 H 17.6934 v -7.9903 h 0.8543 v 7.1368"
       style="fill:#ffffff;fill-opacity:1;fill-rule:nonzero;stroke:none;stroke-width:0.1"
       id="path90" /><path
       d="m 33.6805,20.3926 h 5.4109 v 0.8535 h -5.4109 v -0.8535"
       style="fill:#ffffff;fill-opacity:1;fill-rule:nonzero;stroke:none;stroke-width:0.1"
       id="path92" /><path
       d="m 17.6176,20.3926 h 6.8277 v 18.125 H 23.5887 V 21.2461 h -6.825 v -8.2227 h 0.8539 v 7.3692"
       style="fill:#ffffff;fill-opacity:1;fill-rule:nonzero;stroke:none;stroke-width:0.1"
       id="path94" /><path
       d="m 165.746,11.8691 h -2.561 v 0.9102 h 6.367 v -0.9102 h -2.56 V 5.37891 h -1.246 v 6.49019"
       style="fill:#3d247c;fill-opacity:1;fill-rule:nonzero;stroke:none;stroke-width:0.1"
       id="path96" /><path
       d="m 174.019,12.791 h 5.465 v -0.9219 h -4.215 V 9.75391 h 3.051 V 8.8418 h -3.051 V 6.30078 h 4.383 V 5.37891 h -5.633 V 12.791"
       style="fill:#3d247c;fill-opacity:1;fill-rule:nonzero;stroke:none;stroke-width:0.1"
       id="path98" /><path
       d="m 185.129,12.7793 h 1.248 V 6.29102 H 190.4 V 5.37891 h -5.271 v 7.40039"
       style="fill:#3d247c;fill-opacity:1;fill-rule:nonzero;stroke:none;stroke-width:0.1"
       id="path100" /><path
       d="m 195.123,12.791 h 5.463 v -0.9219 h -4.217 V 9.75391 h 3.051 V 8.8418 h -3.051 V 6.30078 h 4.385 V 5.37891 h -5.631 V 12.791"
       style="fill:#3d247c;fill-opacity:1;fill-rule:nonzero;stroke:none;stroke-width:0.1"
       id="path102" /><path
       d="m 205.269,12.7793 h 1.236 l 2.2,-6.13477 h 0.107 l 2.197,6.13477 h 1.239 l -2.834,-7.40039 h -1.321 l -2.824,7.40039"
       style="fill:#3d247c;fill-opacity:1;fill-rule:nonzero;stroke:none;stroke-width:0.1"
       id="path104" /><path
       d="m 216.714,6.07813 h 0.758 V 12.082 h -0.758 v 0.6973 h 2.774 V 12.082 h -0.756 V 6.07813 h 0.756 V 5.37891 h -2.774 v 0.69922"
       style="fill:#3d247c;fill-opacity:1;fill-rule:nonzero;stroke:none;stroke-width:0.1"
       id="path106" /><path
       d="m 225.218,7.45508 c 0.539,-0.91211 1.118,-1.35742 1.969,-1.35742 0.901,0 1.467,0.46679 1.467,1.18554 0,0.29297 -0.145,0.59571 -0.397,0.79883 -0.482,0.38477 -1.093,0.56641 -1.718,0.82031 -0.625,0.25391 -1.201,0.4668 -1.621,0.94141 -0.288,0.32425 -0.444,0.72075 -0.444,1.13475 0,1.1856 1.02,1.9942 2.533,1.9942 1.237,0 2.139,-0.5157 2.762,-1.5586 l -1.008,-0.5371 c -0.443,0.8105 -0.949,1.1738 -1.754,1.1738 -0.818,0 -1.271,-0.3535 -1.271,-0.9707 0,-0.2031 0.082,-0.416 0.25,-0.5879 0.373,-0.3945 0.973,-0.55665 1.658,-0.84181 1.514,-0.62695 2.27,-1.17383 2.27,-2.33789 0,-1.28516 -1.094,-2.12695 -2.762,-2.12695 -1.406,0 -2.379,0.54687 -3.004,1.6914 l 1.07,0.57813"
       style="fill:#3d247c;fill-opacity:1;fill-rule:nonzero;stroke:none;stroke-width:0.1"
       id="path108" /><path
       d="m 234.73,6.07813 h 0.756 V 12.082 h -0.756 v 0.6973 h 2.775 V 12.082 h -0.757 V 6.07813 h 0.757 V 5.37891 h -2.775 v 0.69922"
       style="fill:#3d247c;fill-opacity:1;fill-rule:nonzero;stroke:none;stroke-width:0.1"
       id="path110" /><path
       d="m 243.449,9.08594 c 0,2.00386 0.48,2.97456 1.681,2.97456 1.202,0 1.67,-0.9707 1.67,-2.97456 0,-2.00586 -0.468,-2.97656 -1.67,-2.97656 -1.201,0 -1.681,0.9707 -1.681,2.97656 z m -1.274,0 c 0,-2.5625 1.082,-3.90039 2.955,-3.90039 1.875,0 2.942,1.33789 2.942,3.90039 0,2.56056 -1.067,3.88676 -2.942,3.88676 -1.873,0 -2.955,-1.3262 -2.955,-3.88676"
       style="fill:#3d247c;fill-opacity:1;fill-rule:nonzero;stroke:none;stroke-width:0.1"
       id="path112" /><path
       d="m 253.129,12.7793 h 1.671 l 2.028,-3.83594 c 0.42,-0.78906 0.816,-1.61133 1.166,-2.43945 h 0.084 v 6.27539 h 1.054 V 5.37891 h -1.621 L 255.314,9.5 c -0.406,0.7598 -0.756,1.5078 -1.045,2.2773 h -0.084 V 5.37891 h -1.056 v 7.40039"
       style="fill:#3d247c;fill-opacity:1;fill-rule:nonzero;stroke:none;stroke-width:0.1"
       id="path114" /></g></svg>