<svg xmlns="http://www.w3.org/2000/svg" viewBox="0 0 592.35 241.78"><defs><style>.cls-1{fill:none;stroke:#fff;stroke-linecap:round;stroke-linejoin:round;stroke-width:22.58px;}.cls-2{fill:#fff;}</style></defs><g id="Layer_2" data-name="Layer 2"><g id="Layer_1-2" data-name="Layer 1"><polyline class="cls-1" points="11.29 132.09 11.29 202.63 89.03 161.56 89.03 11.29 11.29 52.36 11.29 132.09"/><polyline class="cls-1" points="38.09 188.47 118.36 230.48 118.36 79.51 38.76 37.85"/><path class="cls-2" d="M163.9,24.81H146.29V10.69H197.6V24.81H180.09V73.47H163.9Z"/><path class="cls-2" d="M233.65,9.65c19.2,0,33.51,13.37,33.51,32.48S252.85,74.6,233.65,74.6,200,61.24,200,42.13,214.45,9.65,233.65,9.65Zm0,14.31c-10.45,0-17.13,7.91-17.13,18.17S223.2,60.3,233.65,60.3s17-8,17-18.17S244,24,233.65,24Z"/><path class="cls-2" d="M311.87,34.13l-9.5,39.34H285.24l-18-62.78h18.16l9.51,41.89,10.73-41.89h12.43l10.73,41.89,9.41-41.89H356.4L338.51,73.47H321.38Z"/><path class="cls-2" d="M377.77,35.54V73.47H361.58V10.69h16.66l25.41,36.14V10.69h16.29V73.47H404.31Z"/><path class="cls-2" d="M207,110.7l-17.54,46.71h-7.89L164.14,110.7v46.71H146.29V88.18H171.1l14.42,39.23,14.53-39.23h24.81v69.23H207Z"/><path class="cls-2" d="M237.31,88.18h50.75v15h-32.9v11.52h32.18V129.9H255.16v12.46h32.9v15H237.31Z"/><path class="cls-2" d="M298.44,88.18h50.75v15h-32.9v11.52h32.17V129.9H316.29v12.46h32.9v15H298.44Z"/><path class="cls-2" d="M375,103.75H355.62V88.18h56.57v15.57H392.88v53.66H375Z"/><path class="cls-2" d="M420.7,88.18h17.85v69.23H420.7Z"/><path class="cls-2" d="M468.85,115.58v41.83H451V88.18h18.37l28,39.86V88.18h18v69.23H498.12Z"/><path class="cls-2" d="M561.74,87c15.15,0,24.49,7.47,29.57,16.09L576.37,111a17.2,17.2,0,0,0-14.63-8.2c-11.32,0-19.31,8.71-19.31,20s8,20,19.31,20a21.56,21.56,0,0,0,13.07-4.15v-5.82H558.93V118.07h33.42v27.09a40,40,0,0,1-30.61,13.49c-20.66,0-37.47-13.8-37.47-35.8S541.08,87,561.74,87Z"/><path class="cls-2" d="M164.15,184.41H146.29V170.09h52.05v14.32H180.57v49.37H164.15Z"/><path class="cls-2" d="M199.39,170.09H218L233.67,216l15.75-45.93H268L244,233.78H223.35Z"/></g></g></svg>