<svg xmlns="http://www.w3.org/2000/svg" viewBox="0 0 565.37 542.57"><defs><style>.cls-1{fill:none;stroke:#fff;stroke-linejoin:round;stroke-width:42px;}.cls-2{fill:#fff;}</style></defs><g id="Layer_2" data-name="Layer 2"><g id="Layer_1-2" data-name="Layer 1"><polyline class="cls-1" points="276.3 301.61 276.3 457.95 470.94 364.16 470.94 21 276.3 114.79 276.3 136.34"/><polyline class="cls-1" points="343.39 425.62 544.37 521.57 544.37 176.8 345.07 81.65"/><path class="cls-2" d="M155.1,164.26H137.65V147.1h54.5v17.16H174.8v47.87H155.1Z"/><path class="cls-2" d="M229.29,146c20.09,0,35.59,13.65,35.59,33.63s-15.5,33.64-35.59,33.64-35.58-13.65-35.58-33.64S209.21,146,229.29,146Zm0,17.35c-9.45,0-15.6,7.22-15.6,16.28s6.15,16.28,15.6,16.28,15.6-7.21,15.6-16.28S238.75,163.38,229.29,163.38Z"/><path class="cls-2" d="M311.18,175.28l-8.38,36.85H282.13l-18.62-65h22l8.39,39.78,9.84-39.78h14.82l9.85,39.78,8.29-39.78h22.13l-18.63,65H319.57Z"/><path class="cls-2" d="M382.64,177.23v34.9H363v-65h20.28l22.62,32.76V147.1h19.69v65H406.63Z"/><path class="cls-2" d="M57.52,249.38,43,290.42H34.22l-14.53-41v41H0v-65H27.2l11.41,33.14L50,225.4h27.2v65H57.52Z"/><path class="cls-2" d="M87.74,225.4h49.33v16.38H107.43v7.6h29v16.38h-29V274h29.64v16.38H87.74Z"/><path class="cls-2" d="M145.84,225.4h49.33v16.38H165.54v7.6h29v16.38h-29V274h29.63v16.38H145.84Z"/><path class="cls-2" d="M217.89,242.56H200.44V225.4h54.49v17.16H237.58v47.86H217.89Z"/><path class="cls-2" d="M262,225.4h19.7v65H262Z"/><path class="cls-2" d="M311.87,255.52v34.9h-19.7v-65h20.28l22.62,32.75V225.4h19.69v65H335.85Z"/><path class="cls-2" d="M397.56,224.33c15.11,0,24.08,7.6,28.56,16l-16.57,8.48a13.47,13.47,0,0,0-12-7.11c-9.46,0-15.79,7.21-15.79,16.28s6.33,16.28,15.79,16.28c4.19,0,8.09-1.07,10.63-2.92v-2.83H395.61V252.3h31.68v26.13a38.57,38.57,0,0,1-29.73,13.16c-19.69,0-35.78-12.87-35.78-33.63S377.87,224.33,397.56,224.33Z"/><path class="cls-2" d="M322.79,320.85H305.34V303.69h54.49v17.16H342.48v47.87H322.79Z"/><path class="cls-2" d="M359.83,303.69h22.33l14,43.78,14-43.78h22.33l-24,65H383.81Z"/></g></g></svg>