<?xml version="1.0" encoding="UTF-8" standalone="no"?>
<!-- Created with Inkscape (http://www.inkscape.org/) -->

<svg
   xmlns:dc="http://purl.org/dc/elements/1.1/"
   xmlns:cc="http://creativecommons.org/ns#"
   xmlns:rdf="http://www.w3.org/1999/02/22-rdf-syntax-ns#"
   xmlns:svg="http://www.w3.org/2000/svg"
   xmlns="http://www.w3.org/2000/svg"
   xmlns:sodipodi="http://sodipodi.sourceforge.net/DTD/sodipodi-0.dtd"
   xmlns:inkscape="http://www.inkscape.org/namespaces/inkscape"
   width="210mm"
   height="210mm"
   viewBox="0 0 210 210"
   version="1.1"
   id="svg1542"
   inkscape:version="0.92.4 (unknown)"
   sodipodi:docname="fav.svg">
  <defs
     id="defs1536">
    <clipPath
       clipPathUnits="userSpaceOnUse"
       id="clipPath44">
      <path
         d="m 707.441,483.281 v 0 c -3.269,46.289 -26.562,69.746 -71.156,71.66 -16.101,0.684 -136.055,3.965 -263.16,3.965 -123.66,0 -240.293,-2.148 -258.102,-3.965 -44.6324,-4.57 -66.6207,-26.679 -71.2964,-71.718 -1.6836,-16.797 -4.9571,-113.496 -4.9571,-168.067 0,-84.511 4.4493,-178.965 5.0078,-185.508 3.9024,-45.7222 26.5118,-68.5347 71.1607,-71.7964 13.636,-0.918 128.476,-5.4493 256.992,-5.4493 126.086,0 243.949,4.2969 264.285,5.4493 45.156,2.7148 67.117,24.8632 71.226,71.7964 0.825,9.903 4.164,102.188 4.164,185.508 0,53.907 -3.25,154.844 -4.164,168.125 z M 670.176,147.012 C 666.66,107.852 653.07,94.5703 614.277,92.3438 600.355,91.5234 488.594,87.6172 372.281,87.6172 c -111.746,0 -222.508,3.8086 -235.445,4.7266 -39.3907,2.7539 -52.4337,15.5272 -55.8985,54.6682 -0.5781,6.426 -4.4102,95.625 -4.4102,166.875 0,45.371 2.8477,137.011 4.4102,151.699 4.082,38.516 16.6523,50.801 55.9845,54.746 15.578,1.523 127.746,3.398 236.426,3.398 114.929,0 228.765,-2.91 240.984,-3.417 38.934,-1.641 53.012,-15.43 55.844,-54.629 0.758,-11.133 3.726,-105.02 3.726,-151.797 0,-74.141 -3.004,-158.438 -3.726,-166.875"
         id="path42" />
    </clipPath>
    <linearGradient
       x1="0.011236"
       y1="0"
       x2="1"
       y2="0"
       gradientUnits="userSpaceOnUse"
       gradientTransform="matrix(589.814,589.814,588.976,-588.976,-212.954,305.616)"
       spreadMethod="pad"
       id="linearGradient54">
      <stop
         style="stop-opacity:1;stop-color:#fcd562"
         offset="0"
         id="stop46" />
      <stop
         style="stop-opacity:1;stop-color:#fee9ad"
         offset="0.353932"
         id="stop48" />
      <stop
         style="stop-opacity:1;stop-color:#fee9ad"
         offset="0.39049039"
         id="stop50" />
      <stop
         style="stop-opacity:1;stop-color:#fcd562"
         offset="1"
         id="stop52" />
    </linearGradient>
    <clipPath
       clipPathUnits="userSpaceOnUse"
       id="clipPath64">
      <path
         d="M 328.262,476.992 H 173.539 v -86.719 c 0,0 52.895,0 58.961,0 0,-6.425 0,-167.968 0,-174.394 -6.152,0 -68.289,0 -68.289,0 V 126.855 H 486.727 L 633.965,476.758 H 365.777 v -86.192 c 0,0 110.18,0 119.618,0 -3.59,-8.496 -79.891,-188.613 -91.075,-215.019 0,15.859 0,40.332 0,40.332 0,0 -56.547,0 -62.644,0 0,6.621 0,261.113 0,261.113 h -3.414"
         id="path62" />
    </clipPath>
    <linearGradient
       x1="0.011236"
       y1="0"
       x2="1"
       y2="0"
       gradientUnits="userSpaceOnUse"
       gradientTransform="matrix(448.391,448.391,370.239,-370.239,-44.8489,297.178)"
       spreadMethod="pad"
       id="linearGradient74">
      <stop
         style="stop-opacity:1;stop-color:#fcd562"
         offset="0"
         id="stop66" />
      <stop
         style="stop-opacity:1;stop-color:#fee9ad"
         offset="0.353932"
         id="stop68" />
      <stop
         style="stop-opacity:1;stop-color:#fee9ad"
         offset="0.39049039"
         id="stop70" />
      <stop
         style="stop-opacity:1;stop-color:#fcd562"
         offset="1"
         id="stop72" />
    </linearGradient>
  </defs>
  <sodipodi:namedview
     id="base"
     pagecolor="#ffffff"
     bordercolor="#666666"
     borderopacity="1.0"
     inkscape:pageopacity="0.0"
     inkscape:pageshadow="2"
     inkscape:zoom="0.49497475"
     inkscape:cx="240.49374"
     inkscape:cy="594.28823"
     inkscape:document-units="mm"
     inkscape:current-layer="layer1"
     showgrid="false"
     inkscape:window-width="1680"
     inkscape:window-height="986"
     inkscape:window-x="0"
     inkscape:window-y="27"
     inkscape:window-maximized="1" />
  <metadata
     id="metadata1539">
    <rdf:RDF>
      <cc:Work
         rdf:about="">
        <dc:format>image/svg+xml</dc:format>
        <dc:type
           rdf:resource="http://purl.org/dc/dcmitype/StillImage" />
        <dc:title></dc:title>
      </cc:Work>
    </rdf:RDF>
  </metadata>
  <g
     inkscape:label="Layer 1"
     inkscape:groupmode="layer"
     id="layer1"
     transform="translate(0,-87)">
    <path
       inkscape:connector-curvature="0"
       d="m 30.994321,263.01176 c -13.055286,-0.92793 -19.94706,-7.8685 -21.0899045,-21.21801 -0.1552321,-1.77985 -1.3913736,-27.86 -1.3913736,-51.67182 0,-15.35745 0.9181791,-42.26251 1.3913736,-46.83158 1.3631465,-13.30612 7.8631305,-19.85038 21.0693485,-21.20178 5.010871,-0.50957 37.488858,-1.11774 71.853385,-1.11774 36.67283,0 70.01046,0.97684 73.17979,1.10687 13.07467,0.5702 20.17713,7.71121 21.11373,21.22903 v 0.005 c 0.25951,3.56003 1.17637,31.46887 1.17637,46.80994 0,23.51868 -0.93216,48.77414 -1.17637,51.67181 -1.17221,13.51774 -8.07379,20.45831 -21.11373,21.23431 -5.14228,0.30952 -37.87977,1.51941 -73.51181,1.51941 -35.081913,0 -67.26706,-1.22092 -71.500809,-1.53571"
       style="fill:#ffffff;fill-opacity:1;fill-rule:nonzero;stroke:none;stroke-width:0.27784136"
       id="path36" />
    <path
       style="fill:#3d247c;fill-opacity:1;stroke:#000000;stroke-width:0.26458332px;stroke-linecap:butt;stroke-linejoin:miter;stroke-opacity:1"
       d="M -24.427625,59.523514 228.6756,69.08036 253.07635,317.17357 -47.271976,317.77294 Z"
       id="path2342"
       inkscape:connector-curvature="0"
       sodipodi:nodetypes="ccccc" />
    <g
       transform="matrix(0.27784137,0,0,-0.27784137,-0.8424051,277.68527)"
       id="g58">
      <g
         id="g60"
         clip-path="url(#clipPath64)">
        <path
           inkscape:connector-curvature="0"
           d="M 328.262,476.992 H 173.539 v -86.719 c 0,0 52.895,0 58.961,0 0,-6.425 0,-167.968 0,-174.394 -6.152,0 -68.289,0 -68.289,0 V 126.855 H 486.727 L 633.965,476.758 H 365.777 v -86.192 c 0,0 110.18,0 119.618,0 -3.59,-8.496 -79.891,-188.613 -91.075,-215.019 0,15.859 0,40.332 0,40.332 0,0 -56.547,0 -62.644,0 0,6.621 0,261.113 0,261.113 h -3.414"
           style="fill:url(#linearGradient74);fill-opacity:1;fill-rule:nonzero;stroke:none"
           id="path76" />
      </g>
    </g>
    <path
       inkscape:connector-curvature="0"
       d="m 104.10132,148.5432 h 68.77547 l 0.99634,-2.37133 h -72.14095 v 22.04835 h 2.36914 V 148.5432"
       style="fill:#ffffff;fill-opacity:1;fill-rule:nonzero;stroke:none;stroke-width:0.27784136"
       id="path86" />
    <path
       inkscape:connector-curvature="0"
       d="m 186.30319,148.2284 c -0.77797,-10.81491 -4.5627,-15.55245 -16.41959,-16.0517 -3.59026,-0.14649 -35.1697,-0.95494 -66.9945,-0.95494 -31.412461,0 -61.565742,0.53713 -65.781151,0.95494 -11.799622,1.17752 -15.256358,5.27451 -16.40462,16.0517 -0.429784,4.0429 -1.231833,29.33616 -1.231833,42.24605 0,20.00796 1.074466,44.65549 1.231833,46.44622 0.947469,10.78805 4.576771,15.22167 16.40462,16.06273 3.409945,0.23312 34.173368,1.30785 65.484701,1.30785 31.92592,0 63.16445,-1.07449 67.29095,-1.30785 11.843,-0.68362 15.45271,-5.27468 16.41959,-16.06273 0.22367,-2.58839 1.03553,-26.43826 1.03553,-46.44622 0,-12.90989 -0.81187,-39.00609 -1.03553,-42.24605 z m -52.53702,93.27245 H 45.734091 v -22.84602 h 18.96267 V 168.30166 H 48.317174 V 146.1013 h 42.045183 v 72.55353 h 17.407313 v 14.9231 l 27.6766,-65.35771 h -33.71409 v -22.04835 h 72.14095 l -40.10696,95.32898"
       style="fill:#3d247c;fill-opacity:1;fill-rule:nonzero;stroke:none;stroke-width:0.27784136"
       id="path80" />
    <path
       inkscape:connector-curvature="0"
       d="m 110.13799,235.94934 27.68634,-65.35243 h -3.37966 l -24.30668,57.38085 v 7.97158"
       style="fill:#ffffff;fill-opacity:1;fill-rule:nonzero;stroke:none;stroke-width:0.27784136"
       id="path88" />
    <path
       inkscape:connector-curvature="0"
       d="M 50.690774,148.47264 H 90.362357 V 146.1013 H 48.317174 v 22.20036 h 2.3736 v -19.82902"
       style="fill:#ffffff;fill-opacity:1;fill-rule:nonzero;stroke:none;stroke-width:0.27784136"
       id="path90" />
    <path
       inkscape:connector-curvature="0"
       d="m 92.735957,221.02616 h 15.033713 v -2.37133 H 92.735957 v 2.37133"
       style="fill:#ffffff;fill-opacity:1;fill-rule:nonzero;stroke:none;stroke-width:0.27784136"
       id="path92" />
    <path
       inkscape:connector-curvature="0"
       d="m 48.106579,221.02616 h 18.970162 v -50.35869 h -2.37998 v 47.98736 h -18.96267 v 22.84602 h 2.372488 v -20.47469"
       style="fill:#ffffff;fill-opacity:1;fill-rule:nonzero;stroke:none;stroke-width:0.27784136"
       id="path94" />
    <rect
       style="opacity:0;fill:#e9e9e3;fill-opacity:0.98522171;stroke:#ffffff;stroke-width:1219527.125;stroke-linecap:round;stroke-linejoin:bevel;stroke-miterlimit:4;stroke-dasharray:none;stroke-dashoffset:0;stroke-opacity:1;paint-order:stroke fill markers"
       id="rect2338"
       width="235.85715"
       height="257.77975"
       x="-7.1815472"
       y="69.08036" />
    <rect
       style="opacity:0;fill:#3d247c;fill-opacity:1;stroke:#ffffff;stroke-width:1219527.125;stroke-linecap:round;stroke-linejoin:bevel;stroke-miterlimit:4;stroke-dasharray:none;stroke-dashoffset:0;stroke-opacity:1;paint-order:stroke fill markers"
       id="rect2340"
       width="253.62201"
       height="249.46428"
       x="-15.875"
       y="70.214294" />
    <path
       style="fill:#ffffff;fill-opacity:1;stroke:#ffffff;stroke-width:0;stroke-linecap:butt;stroke-linejoin:miter;stroke-miterlimit:4;stroke-dasharray:none;stroke-opacity:0.82089551"
       d="m 45.734091,241.50085 c -0.111494,2.38871 103.152699,114.38904 103.187499,116.77854 h 88.82543 l 41.86087,-97.04538 -105.73476,-115.06214 -6.15647,0.10543 -35.95501,92.08311 -85.983427,0.4022 z"
       id="path2344"
       inkscape:connector-curvature="0"
       sodipodi:nodetypes="ccccccccc" />
  </g>
</svg>
