<?xml version="1.0" encoding="UTF-8" standalone="no"?>
<svg
   xmlns:dc="http://purl.org/dc/elements/1.1/"
   xmlns:cc="http://creativecommons.org/ns#"
   xmlns:rdf="http://www.w3.org/1999/02/22-rdf-syntax-ns#"
   xmlns:svg="http://www.w3.org/2000/svg"
   xmlns="http://www.w3.org/2000/svg"
   version="1.1"
   id="svg2"
   xml:space="preserve"
   width="319.35999"
   height="81.720001"
   viewBox="0 0 319.35999 81.720001"><metadata
     id="metadata8"><rdf:RDF><cc:Work
         rdf:about=""><dc:format>image/svg+xml</dc:format><dc:type
           rdf:resource="http://purl.org/dc/dcmitype/StillImage" /><dc:title></dc:title></cc:Work></rdf:RDF></metadata><defs
     id="defs6"><clipPath
       clipPathUnits="userSpaceOnUse"
       id="clipPath44"><path
         d="m 707.441,483.281 v 0 c -3.269,46.289 -26.562,69.746 -71.156,71.66 -16.101,0.684 -136.055,3.965 -263.16,3.965 -123.66,0 -240.293,-2.148 -258.102,-3.965 -44.6324,-4.57 -66.6207,-26.679 -71.2964,-71.718 -1.6836,-16.797 -4.9571,-113.496 -4.9571,-168.067 0,-84.511 4.4493,-178.965 5.0078,-185.508 3.9024,-45.7222 26.5118,-68.5347 71.1607,-71.7964 13.636,-0.918 128.476,-5.4493 256.992,-5.4493 126.086,0 243.949,4.2969 264.285,5.4493 45.156,2.7148 67.117,24.8632 71.226,71.7964 0.825,9.903 4.164,102.188 4.164,185.508 0,53.907 -3.25,154.844 -4.164,168.125 z M 670.176,147.012 C 666.66,107.852 653.07,94.5703 614.277,92.3438 600.355,91.5234 488.594,87.6172 372.281,87.6172 c -111.746,0 -222.508,3.8086 -235.445,4.7266 -39.3907,2.7539 -52.4337,15.5272 -55.8985,54.6682 -0.5781,6.426 -4.4102,95.625 -4.4102,166.875 0,45.371 2.8477,137.011 4.4102,151.699 4.082,38.516 16.6523,50.801 55.9845,54.746 15.578,1.523 127.746,3.398 236.426,3.398 114.929,0 228.765,-2.91 240.984,-3.417 38.934,-1.641 53.012,-15.43 55.844,-54.629 0.758,-11.133 3.726,-105.02 3.726,-151.797 0,-74.141 -3.004,-158.438 -3.726,-166.875"
         id="path42" /></clipPath><linearGradient
       x1="0.011236"
       y1="0"
       x2="1"
       y2="0"
       gradientUnits="userSpaceOnUse"
       gradientTransform="matrix(589.814,589.814,588.976,-588.976,-212.954,305.616)"
       spreadMethod="pad"
       id="linearGradient54"><stop
         style="stop-opacity:1;stop-color:#fcd562"
         offset="0"
         id="stop46" /><stop
         style="stop-opacity:1;stop-color:#fee9ad"
         offset="0.353932"
         id="stop48" /><stop
         style="stop-opacity:1;stop-color:#fee9ad"
         offset="0.39049039"
         id="stop50" /><stop
         style="stop-opacity:1;stop-color:#fcd562"
         offset="1"
         id="stop52" /></linearGradient><clipPath
       clipPathUnits="userSpaceOnUse"
       id="clipPath64"><path
         d="M 328.262,476.992 H 173.539 v -86.719 c 0,0 52.895,0 58.961,0 0,-6.425 0,-167.968 0,-174.394 -6.152,0 -68.289,0 -68.289,0 V 126.855 H 486.727 L 633.965,476.758 H 365.777 v -86.192 c 0,0 110.18,0 119.618,0 -3.59,-8.496 -79.891,-188.613 -91.075,-215.019 0,15.859 0,40.332 0,40.332 0,0 -56.547,0 -62.644,0 0,6.621 0,261.113 0,261.113 h -3.414"
         id="path62" /></clipPath><linearGradient
       x1="0.011236"
       y1="0"
       x2="1"
       y2="0"
       gradientUnits="userSpaceOnUse"
       gradientTransform="matrix(448.391,448.391,370.239,-370.239,-44.8489,297.178)"
       spreadMethod="pad"
       id="linearGradient74"><stop
         style="stop-opacity:1;stop-color:#fcd562"
         offset="0"
         id="stop66" /><stop
         style="stop-opacity:1;stop-color:#fee9ad"
         offset="0.353932"
         id="stop68" /><stop
         style="stop-opacity:1;stop-color:#fee9ad"
         offset="0.39049039"
         id="stop70" /><stop
         style="stop-opacity:1;stop-color:#fcd562"
         offset="1"
         id="stop72" /></linearGradient></defs><g
     transform="matrix(0.44451935,0,0,0.44451935,0.01492667,12.005462)"
     id="g5388"><g
       style="display:inline"
       id="g7964"
       transform="matrix(1.3749346,0,-0.20488569,2.0821003,-232.79095,-769.91608)"><rect
         y="429.19788"
         x="284.48901"
         height="2.2531221"
         width="476.48602"
         id="rect7951"
         style="opacity:1;fill:#ad00ff;fill-opacity:1;stroke:#ad00ff;stroke-width:2.88135978;stroke-linecap:butt;stroke-linejoin:miter;stroke-miterlimit:4;stroke-dasharray:none;stroke-dashoffset:0;stroke-opacity:1;paint-order:markers stroke fill"
         transform="matrix(1,0,-0.07562606,0.99713625,0,0)" /><rect
         y="433.57889"
         x="287.95477"
         height="2.2524714"
         width="468.15701"
         id="rect7955"
         style="opacity:1;fill:#ffb800;fill-opacity:1;stroke:#ffb800;stroke-width:2.88094373;stroke-linecap:butt;stroke-linejoin:miter;stroke-miterlimit:4;stroke-dasharray:none;stroke-dashoffset:0;stroke-opacity:1;paint-order:markers stroke fill"
         transform="matrix(1,0,-0.07172747,0.99742427,0,0)" /><rect
         y="438.02982"
         x="292.92224"
         height="2.2521939"
         width="464.45169"
         id="rect7959"
         style="opacity:1;fill:#00e0ff;fill-opacity:1;stroke:#00e0ff;stroke-width:2.88076571;stroke-linecap:butt;stroke-linejoin:miter;stroke-miterlimit:4;stroke-dasharray:none;stroke-dashoffset:0;stroke-opacity:1;paint-order:markers stroke fill"
         transform="matrix(1,0,-0.06999204,0.99754755,0,0)" /><path
         id="path5628"
         d="m 248.51284,424.37668 -0.86375,18.26618 24.10048,0.16914 z"
         style="fill:#ffffff;fill-opacity:1;stroke:none;stroke-width:1.66503596px;stroke-linecap:butt;stroke-linejoin:miter;stroke-opacity:1" /></g><g
       aria-label="17"
       style="font-style:normal;font-variant:normal;font-weight:bold;font-stretch:normal;font-size:174.6179657px;line-height:1.25;font-family:'Kayak Sans';-inkscape-font-specification:'Kayak Sans, Bold';font-variant-ligatures:normal;font-variant-caps:normal;font-variant-numeric:normal;font-feature-settings:normal;text-align:start;letter-spacing:0px;word-spacing:0px;writing-mode:lr-tb;text-anchor:start;display:inline;fill:#000000;fill-opacity:1;stroke:#ffffff;stroke-width:12.9007345;stroke-miterlimit:4;stroke-dasharray:none;stroke-opacity:1;paint-order:stroke fill markers"
       id="text2444"
       transform="matrix(1.3409767,0,0,1.3409767,-318.14512,-453.80655)"><g
         id="g2477"
         transform="matrix(1,0,-0.15781148,1,60.950657,0)"
         style="fill:#000000;fill-opacity:1;stroke:#ffffff;stroke-width:12.9007345;stroke-miterlimit:4;stroke-dasharray:none;stroke-opacity:1;paint-order:stroke fill markers"><path
           id="path2458"
           style="word-spacing:-19.91543388px;fill:#000000;fill-opacity:1;stroke:#ffffff;stroke-width:12.9007345;stroke-linecap:butt;stroke-linejoin:miter;stroke-miterlimit:4;stroke-dasharray:none;stroke-dashoffset:0;stroke-opacity:1;paint-order:stroke fill markers"
           d="m 601.85743,324.79273 -23.10618,22.1683 11.93677,12.44835 10.82836,-10.40205 v 98.64892 h 17.30833 V 324.79273 Z" /><path
           id="path2465"
           d="m 652.33294,447.65625 58.4902,-106.32256 v -16.54096 h -75.79852 v 17.22306 h 55.67652 l -58.06388,105.64046 z"
           style="fill:#000000;fill-opacity:1;stroke:#ffffff;stroke-width:12.9007345;stroke-linecap:butt;stroke-linejoin:miter;stroke-miterlimit:4;stroke-dasharray:none;stroke-dashoffset:0;stroke-opacity:1;paint-order:stroke fill markers" /></g></g><rect
       style="display:inline;opacity:1;fill:#ffffff;fill-opacity:1;stroke:#feffff;stroke-width:0.10658135;stroke-linecap:round;stroke-linejoin:bevel;stroke-miterlimit:4;stroke-dasharray:none;stroke-dashoffset:0;stroke-opacity:1;paint-order:markers stroke fill"
       id="rect2450"
       width="669.35419"
       height="71.72171"
       x="36.946602"
       y="41.909382" /><path
       d="M 9.3651202,7.5509785 7.2925802,22.576889 H 37.78851 L 24.90916,114.2127 h 15.0259 L 52.8144,22.576889 H 83.31033 L 85.38287,7.5509785 Z"
       style="font-style:italic;font-variant:normal;font-weight:bold;font-stretch:normal;font-size:113.04550171px;line-height:1.25;font-family:'Kayak Sans';-inkscape-font-specification:'Kayak Sans, Bold Italic';font-variant-ligatures:normal;font-variant-caps:normal;font-variant-numeric:normal;font-feature-settings:normal;text-align:start;letter-spacing:-6.23000002px;word-spacing:-18.91999626px;writing-mode:lr-tb;text-anchor:start;display:inline;fill:#0b0b0b;fill-opacity:1;stroke:none;stroke-width:3.78978467"
       id="path7974" /><path
       d="m 84.06041,99.186799 q -10.65877,0 -14.43375,-6.95782 -2.81273,-5.4034 -1.55441,-14.35973 1.25834,-8.95633 5.62547,-14.35973 5.69948,-6.9578 16.35825,-6.9578 10.58475,0 14.35973,6.9578 2.88675,5.4034 1.62843,14.35973 -1.25833,8.95633 -5.62547,14.35973 -5.77349,6.95782 -16.35825,6.95782 z m 8.06809,-57.66098 q -15.47001,0 -26.12878,9.91857 -10.58475,9.84455 -12.95337,26.42486 -2.2946,16.5803 5.55145,26.424871 7.84604,9.91858 23.31606,9.91858 15.47001,0 26.12878,-9.91858 10.65878,-9.844571 12.95336,-26.424871 2.36863,-16.58031 -5.47742,-26.42486 -7.92004,-9.91857 -23.39008,-9.91857 z"
       style="font-style:italic;font-variant:normal;font-weight:bold;font-stretch:normal;font-size:113.04550171px;line-height:1.25;font-family:'Kayak Sans';-inkscape-font-specification:'Kayak Sans, Bold Italic';font-variant-ligatures:normal;font-variant-caps:normal;font-variant-numeric:normal;font-feature-settings:normal;text-align:start;letter-spacing:-6.23000002px;word-spacing:-18.91999626px;writing-mode:lr-tb;text-anchor:start;display:inline;fill:#0b0b0b;fill-opacity:1;stroke:none;stroke-width:3.78978467"
       id="path7976" /><path
       d="m 204.79567,41.599819 -20.87342,48.26055 -7.17987,-48.26055 h -17.83864 l -19.76313,45.81791 -6.80977,-45.81791 h -15.61806 l 10.80681,72.612881 h 15.69208 l 21.39156,-49.518871 7.3279,49.518871 h 17.09845 l 31.38415,-72.612881 z"
       style="font-style:italic;font-variant:normal;font-weight:bold;font-stretch:normal;font-size:113.04550171px;line-height:1.25;font-family:'Kayak Sans';-inkscape-font-specification:'Kayak Sans, Bold Italic';font-variant-ligatures:normal;font-variant-caps:normal;font-variant-numeric:normal;font-feature-settings:normal;text-align:start;letter-spacing:-6.23000002px;word-spacing:-18.91999626px;writing-mode:lr-tb;text-anchor:start;display:inline;fill:#0b0b0b;fill-opacity:1;stroke:none;stroke-width:3.78978467"
       id="path7978" /><path
       d="m 264.24299,44.708639 q -5.84752,-3.18282 -13.61954,-3.18282 -7.77202,0 -14.50777,3.18282 -1.11029,0.59215 -2.22058,1.25833 l 0.59217,-4.36715 H 219.53538 L 209.32072,114.2127 h 15.0259 l 5.18135,-36.861581 q 1.33235,-8.8083 5.10733,-13.98964 5.03331,-6.80976 13.8416,-6.80976 9.03035,0 12.06513,7.03182 2.2946,5.32938 1.03628,14.28571 l -5.10734,36.343451 h 15.02591 l 5.10733,-36.343451 q 1.62842,-11.84308 -1.62843,-20.50332 -3.25685,-8.58623 -10.73279,-12.65729 z"
       style="font-style:italic;font-variant:normal;font-weight:bold;font-stretch:normal;font-size:113.04550171px;line-height:1.25;font-family:'Kayak Sans';-inkscape-font-specification:'Kayak Sans, Bold Italic';font-variant-ligatures:normal;font-variant-caps:normal;font-variant-numeric:normal;font-feature-settings:normal;text-align:start;letter-spacing:-6.23000002px;word-spacing:-18.91999626px;writing-mode:lr-tb;text-anchor:start;display:inline;fill:#0b0b0b;fill-opacity:1;stroke:none;stroke-width:3.78978467"
       id="path7980" /><path
       d="M 373.23641,7.6249985 333.19202,89.120179 316.09357,7.6249985 H 300.62356 L 285.67166,114.2127 h 15.02592 l 8.73426,-62.546261 12.65729,60.177631 v 0 0 0 h 15.84012 0.074 v 0 -0.074 l 29.53367,-60.103621 -8.80829,62.546251 h 15.0259 L 388.70642,7.6249985 Z"
       style="font-style:italic;font-variant:normal;font-weight:bold;font-stretch:normal;font-size:113.04550171px;line-height:1.25;font-family:'Kayak Sans';-inkscape-font-specification:'Kayak Sans, Bold Italic';font-variant-ligatures:normal;font-variant-caps:normal;font-variant-numeric:normal;font-feature-settings:normal;text-align:start;letter-spacing:-5.59000015px;word-spacing:-18.91999626px;writing-mode:lr-tb;text-anchor:start;display:inline;fill:#0b0b0b;fill-opacity:1;stroke:none;stroke-width:3.78978467"
       id="path7982" /><path
       d="m 400.08526,70.171249 q 5.18134,-13.61953 20.13324,-13.61953 14.87786,0 16.2102,13.61953 z m 51.07326,7.698 v 0 l 0.074,-0.66617 q 0.51814,-3.62694 0.4441,-7.03183 -0.22205,-13.32346 -7.99406,-20.94744 -7.84604,-7.69799 -21.39157,-7.69799 -15.47001,0 -26.12877,9.91857 -10.58476,9.84455 -12.95338,26.42486 -2.2946,16.5803 5.69949,26.424871 8.06808,9.91858 23.90822,9.91858 10.95482,0 20.1332,-4.73723 9.17839,-4.66322 14.43377,-13.027391 l -12.58325,-6.58771 q -2.73875,4.36713 -7.99409,6.88378 -5.32938,2.44265 -11.9171,2.44265 -16.13619,0 -17.02443,-14.80385 h 52.40563 z"
       style="font-style:italic;font-variant:normal;font-weight:bold;font-stretch:normal;font-size:113.04550171px;line-height:1.25;font-family:'Kayak Sans';-inkscape-font-specification:'Kayak Sans, Bold Italic';font-variant-ligatures:normal;font-variant-caps:normal;font-variant-numeric:normal;font-feature-settings:normal;text-align:start;letter-spacing:-5.59000015px;word-spacing:-18.91999626px;writing-mode:lr-tb;text-anchor:start;display:inline;fill:#0b0b0b;fill-opacity:1;stroke:none;stroke-width:3.78978467"
       id="path7984" /><path
       d="m 467.20061,70.171249 q 5.18134,-13.61953 20.1332,-13.61953 14.87791,0 16.21024,13.61953 z m 51.07326,7.698 v 0 l 0.074,-0.66617 q 0.5181,-3.62694 0.4441,-7.03183 -0.22205,-13.32346 -7.99406,-20.94744 -7.84605,-7.69799 -21.39157,-7.69799 -15.47005,0 -26.12881,9.91857 -10.58472,9.84455 -12.95334,26.42486 -2.29462,16.5803 5.69948,26.424871 8.06809,9.91858 23.90819,9.91858 10.95486,0 20.13324,-4.73723 9.17839,-4.66322 14.43377,-13.027391 l -12.58329,-6.58771 q -2.73871,4.36713 -7.99409,6.88378 -5.32939,2.44265 -11.91706,2.44265 -16.13623,0 -17.02443,-14.80385 h 52.40559 z"
       style="font-style:italic;font-variant:normal;font-weight:bold;font-stretch:normal;font-size:113.04550171px;line-height:1.25;font-family:'Kayak Sans';-inkscape-font-specification:'Kayak Sans, Bold Italic';font-variant-ligatures:normal;font-variant-caps:normal;font-variant-numeric:normal;font-feature-settings:normal;text-align:start;letter-spacing:-5.59000015px;word-spacing:-18.91999626px;writing-mode:lr-tb;text-anchor:start;display:inline;fill:#0b0b0b;fill-opacity:1;stroke:none;stroke-width:3.78978467"
       id="path7986" /><path
       d="m 520.10425,85.863329 h -0.074 l -0.74019,5.62545 q -1.48038,10.140651 3.62695,16.432281 5.03329,6.29164 14.65581,6.29164 h 3.92301 l 2.14657,-15.025901 h -3.92301 q -3.0348,0 -4.29314,-1.25834 -1.77647,-1.85048 -1.18429,-6.43968 l 0.8142,-5.62545 v 0 l 3.923,-28.05328 10.73281,-1.25833 2.07253,-15.0259 -10.65877,1.25831 3.4049,-24.2783 h -15.0259 l -3.40491,24.2783 -10.36267,-1.25831 -2.07256,15.0259 10.36271,1.25833 z"
       style="font-style:italic;font-variant:normal;font-weight:bold;font-stretch:normal;font-size:113.04550171px;line-height:1.25;font-family:'Kayak Sans';-inkscape-font-specification:'Kayak Sans, Bold Italic';font-variant-ligatures:normal;font-variant-caps:normal;font-variant-numeric:normal;font-feature-settings:normal;text-align:start;letter-spacing:-5.59000015px;word-spacing:-18.91999626px;writing-mode:lr-tb;text-anchor:start;display:inline;fill:#0b0b0b;fill-opacity:1;stroke:none;stroke-width:3.78978467"
       id="path7988" /><path
       d="M 554.57708,41.525819 544.36245,114.2127 h 15.02591 l 10.21463,-72.686881 z m 8.80829,-9.1784 q 3.4049,0 6.14361,-2.44263 2.73872,-2.44263 3.25686,-5.84752 0.4441,-3.40489 -1.62843,-5.84752 -2.07257,-2.36861 -5.47743,-2.36861 -3.4049,0 -6.14361,2.36861 -2.81272,2.44263 -3.25682,5.84752 -0.51814,3.40489 1.55438,5.84752 2.07253,2.44263 5.55144,2.44263 z"
       style="font-style:italic;font-variant:normal;font-weight:bold;font-stretch:normal;font-size:113.04550171px;line-height:1.25;font-family:'Kayak Sans';-inkscape-font-specification:'Kayak Sans, Bold Italic';font-variant-ligatures:normal;font-variant-caps:normal;font-variant-numeric:normal;font-feature-settings:normal;text-align:start;letter-spacing:-5.59000015px;word-spacing:-18.91999626px;writing-mode:lr-tb;text-anchor:start;display:inline;fill:#0b0b0b;fill-opacity:1;stroke:none;stroke-width:3.78978467"
       id="path7990" /><path
       d="m 667.56422,56.551719 q 10.58476,0 14.35972,6.9578 2.88676,5.32939 1.62843,14.2117 v 0.29607 q -1.33234,8.95633 -5.69948,14.21169 -5.69948,7.03182 -16.28424,7.03182 -10.65877,0 -14.35972,-7.03182 -2.88676,-5.32938 -1.62843,-14.35973 1.25833,-8.95633 5.62547,-14.28571 5.69948,-7.03182 16.35825,-7.03182 z m -15.396,56.994801 q 3.4049,0.66618 7.2539,0.66618 3.849,0 7.47595,-0.66618 l 0.8882,-0.14804 q 6.43967,-1.40636 11.473,-5.18135 l -1.11029,8.21614 q -3.03481,21.31754 -24.20429,21.31754 -5.92153,0 -10.14066,-1.85049 -5.47739,-2.44263 -7.40191,-7.92005 L 622.0424,134.642 q 3.10881,8.73427 10.80681,13.4715 7.62396,4.66322 18.94891,4.66322 16.50629,0 27.7572,-9.91858 11.25095,-9.84456 13.54552,-26.42487 L 703.61156,41.599819 H 688.6597 l -0.88824,5.99557 q -4.07105,-3.849 -10.28867,-5.25538 l -0.66615,-0.14803 q -3.4049,-0.66616 -7.1799,-0.66616 -3.77495,0 -7.3279,0.66616 l -0.74019,0.14803 q -12.4352,2.44265 -20.65134,11.84308 -8.36419,9.47447 -10.36272,23.68616 -1.99852,14.2117 3.62695,23.686151 5.55144,9.32643 17.17248,11.84308 z"
       style="font-style:italic;font-variant:normal;font-weight:bold;font-stretch:normal;font-size:113.04550171px;line-height:1.25;font-family:'Kayak Sans';-inkscape-font-specification:'Kayak Sans, Bold Italic';font-variant-ligatures:normal;font-variant-caps:normal;font-variant-numeric:normal;font-feature-settings:normal;text-align:start;letter-spacing:-5.59000015px;word-spacing:-18.91999626px;writing-mode:lr-tb;text-anchor:start;display:inline;fill:#0b0b0b;fill-opacity:1;stroke:#ffffff;stroke-width:4.74633503;stroke-miterlimit:4;stroke-dasharray:none;stroke-opacity:1"
       id="path7994" /><path
       d="m 619.91592,44.708639 q -5.84749,-3.18282 -13.61953,-3.18282 -7.77201,0 -14.50777,3.18282 -1.11028,0.59215 -2.22057,1.25833 l 0.59214,-4.36715 H 575.20833 L 564.99366,114.2127 h 15.02591 l 5.18134,-36.861581 q 1.33233,-8.8083 5.10733,-13.98964 5.03333,-6.80976 13.84162,-6.80976 9.03033,0 12.0651,7.03182 2.29462,5.32938 1.03629,14.28571 l -5.10734,36.343451 h 15.02591 l 5.10734,-36.343451 q 1.62842,-11.84308 -1.62843,-20.50332 -3.25686,-8.58623 -10.73281,-12.65729 z"
       style="font-style:italic;font-variant:normal;font-weight:bold;font-stretch:normal;font-size:113.04550171px;line-height:1.25;font-family:'Kayak Sans';-inkscape-font-specification:'Kayak Sans, Bold Italic';font-variant-ligatures:normal;font-variant-caps:normal;font-variant-numeric:normal;font-feature-settings:normal;text-align:start;letter-spacing:-5.59000015px;word-spacing:-18.91999626px;writing-mode:lr-tb;text-anchor:start;display:inline;fill:#0b0b0b;fill-opacity:1;stroke:none;stroke-width:3.78978467"
       id="path7992" /></g></svg>